<svg xmlns="http://www.w3.org/2000/svg" xml:space="preserve" width="897" height="716.039" viewBox="0 0 237.331 189.452"><path d="M-.105 77.932C1.342 84.024 5.32 90.185 8.28 95.659c7.305 13.505 15.589 26.446 24.576 38.893a262 262 0 0 0 9.75 12.7c1.416 1.73 2.923 4.23 4.914 5.292l1.648-7.144-2.676-3.968-5.373-7.938L27.412 107.3c23.972 9.981 48.41 17.423 74.083 21.675 8.956 1.483 17.953 2.806 26.988 3.68 2.996.29 6 .51 8.995.794 1.399.133 2.944-.131 4.234.571 1.622.884 2.73 2.793 3.802 4.237 3.016 4.061 5.205 8.66 7.84 12.964l4.497-3.44v-.264c-4.306-5.587-8.062-11.588-12.344-17.198-9.267-12.14-19.342-23.745-30.518-34.155-4.19-3.903-8.445-7.714-12.965-11.24-1.935-1.51-3.993-3.565-6.35-4.347l-19.738 26.194-4.074 7.144 10.583 1.852 6.35-10.848 5.82 2.117c-.02-2.517-2.486-8.582.465-10.056.905-.452 2.227.68 2.975 1.097a197 197 0 0 1 7.938 4.675c11.516 7.15 21.92 15.885 31.485 25.45-37.768 0-75.447-11.73-108.214-30.125-6.677-3.749-13.13-8.003-19.315-12.512-3.372-2.46-6.522-5.426-10.054-7.633m37.57 39.687c1.424 4.464 5.258 8.995 7.758 12.965.682 1.083 1.615 3.619 2.912 4.046 1.167.384 3.232-.863 4.412-1.136l-5.556-6.35zm116.417 12.171c2.243 4.742 5.858 4.502 10.583 5.068 7.71.923 15.51 2.34 23.283 2.34-1.689 1.742-4.292 2.806-6.35 4.081l-12.435 7.673c-14.758 9.144-30.046 17.518-44.186 27.632-4.926 3.524-9.82 7.047-14.552 10.832-1.073.859-3.657 3.86-5.102 3.577-3.053-.596-6.596-3.874-9.185-5.531-7.67-4.908-14.71-10.808-21.696-16.623-3.081-2.565-6.424-6.41-10.054-8.093-.28 1.44-1.225 3.586-.855 5.027.794 3.092 5.53 6.792 7.734 8.996 6.573 6.574 13.636 12.52 20.902 18.31 23.579 18.785 50.316 35.14 79.11 44.464 11.105 3.596 22.17 5.74 33.603 7.87l-7.226-20.638-16.7-43.127-8.089-17.462-9.525 3.44c2.312 8.026 7.538 15.938 11.03 23.547 5.29 11.524 9.197 23.44 13.84 35.19l-.264.264-7.937-1.435-15.346-4.385 6.085 3.77 11.907 5.755v.264c-11.128-1.437-22.842-6.759-32.809-11.707-4.175-2.073-8.338-4.962-12.7-6.549v-.265l20.638 6.35v-.264c-5.583-3.418-11.32-6.648-16.669-10.431-2.517-1.78-5.816-5.256-8.731-6.163-2.696-.838-3.425 4.168-5.581 4.36-1.486.13-3.609-1.855-4.738-2.66-3.838-2.733-7.905-5.465-11.377-8.654 4.234-1.792 8.212-6.127 11.906-8.897 7.602-5.701 15.408-11.17 23.548-16.08 15.083-9.097 30.82-16.957 46.567-24.83 14.698-7.35 29.505-14.861 44.714-21.101-1.75-.728-4.475.15-6.35.255-6.008.334-12.007 1.177-17.991 1.817-19.686 2.108-39.183 4.013-59.002 4.013m-88.371-4.498c-5.646 13.101-11.813 25.955-15.95 39.688-6.508 21.608-9.186 44.973-9.186 67.468 0 8.86.222 17.649 1.103 26.459.387 3.864.842 5.043 4.189 7.093.757.464 1.712 1.333 2.635 1.382 1.375.073 2.582-2.493 3.263-3.448 2.778-3.9 5.554-7.81 8.423-11.642 11.632-15.542 23.528-30.44 37.273-44.185v-.265c-1.446-1.263-4.373-4.913-6.35-5-1.167-.051-2.364 1.515-3.175 2.198-2.55 2.148-4.91 4.492-7.409 6.695-7.03 6.2-13.534 13.224-19.799 20.184-3.15 3.5-6.024 7.77-9.57 10.848l1.588-27.517h-.264c-2.86 4.242-4.773 8.91-6.35 13.759h-.265l1.395-16.934 2.045-11.906h.264l3.969 5.821h.264l1.808-30.956 2.466-18.521 11.337-28.84zm34.396 6.085c1.739 4.78 4.046 8.981 3.68 14.288-.295 4.287-3.659 8.097-1.828 12.435l5.027-5.027c-.604 2.332-2.443 6.644-1.88 8.996.57 2.385 5.727 5.157 7.965 5.556-.624-2.614-1.07-5.679.67-7.937 1.426-1.853 4.609-3.295 4.857-5.821.323-3.294-3.386-4.904-5.122-7.144-2.22-2.862-3.087-6.565-5.179-9.525-2.072-2.932-4.92-4.551-8.19-5.82m14.816 7.937c.146.987.388 2.79 1.244 3.432 1.148.86 3.986.201 5.37.296 4.234.29 11.152.351 14.537 3.254 2.536 2.175-1.156 4.952-2.895 6.274-4.776 3.634-11.431 7.362-17.462 8.175l.265 2.646c8.198-1.692 16.748-5.238 23.547-10.132 2.981-2.145 6.78-5.481 4.242-9.447-1.793-2.8-5.39-3.735-8.475-4.254-6.761-1.14-13.58-.244-20.373-.244m-16.14 25.665c-.296-1.254-.888-3.986-1.986-4.756-1.123-.787-3.572-.205-4.893-.295-3.608-.247-7.334-.796-10.847-1.663-1.195-.295-2.985-.478-3.89-1.396-1.55-1.57 3.39-3.84 4.419-4.384 5.617-2.964 11.74-5.792 17.991-7.086-.14-.582-.146-1.72-.688-2.085-1.437-.97-6.474 1.22-8.043 1.668-6.296 1.795-13.13 4.021-18.52 7.837-4.61 3.263-3.766 6.863 1.322 8.696 1.366.492 2.812.846 4.234 1.135 2.626.534 5.266 1.002 7.937 1.25 4.253.396 8.783.302 12.965 1.079m-29.37 28.045-.264 11.642h.265l3.704-11.906zm94.192 2.117v.53c5.334 3.757 9.626 9.838 13.78 14.816 1.709 2.049 3.348 4.533 5.534 6.085-2.558-6.143-6.464-11.945-10.142-17.462-1.037-1.556-2.644-5.058-4.455-5.757-1.259-.486-3.557 1.305-4.717 1.788m-19.05 6.35c10.34 3.365 18.98 9.774 28.84 14.023-4.12-5.83-11.929-10.597-17.728-14.66-1.548-1.086-4.677-3.937-6.614-3.93-1.744.006-3.937 3.119-4.498 4.567" style="fill:#040404;stroke:none" transform="translate(.105 -77.932)"/></svg>