<?xml version="1.0" encoding="UTF-8" standalone="no"?><!DOCTYPE svg PUBLIC "-//W3C//DTD SVG 1.1//EN" "http://www.w3.org/Graphics/SVG/1.1/DTD/svg11.dtd"><svg width="100%" height="100%" viewBox="0 0 5834 5834" version="1.1" xmlns="http://www.w3.org/2000/svg" xmlns:xlink="http://www.w3.org/1999/xlink" xml:space="preserve" xmlns:affinity="https://www.affinity.studio/" style="fill-rule:evenodd;clip-rule:evenodd;stroke-linejoin:round;stroke-miterlimit:2;"><path id="Плашка" d="M4583.333,0c689.894,0 1250,560.106 1250,1250l0,3333.333c0,689.894 -560.106,1250 -1250,1250l-3333.333,0c-689.894,0 -1250,-560.106 -1250,-1250l0,-3333.333c0,-689.894 560.106,-1250 1250,-1250l3333.333,0Z" style="fill:url(#_Linear1);"/><g id="eye"><path id="eye-flame" d="M2564.464,2136.61c32.315,86.74 74.835,172.157 69.543,267.213c-4.157,77.858 -71.811,159.496 -34.205,237.354c31.181,-31.181 62.362,-62.362 93.543,-93.543c17.764,127.37 -132.661,217.89 113.575,273.449c6.425,-5.48 -7.559,-102.047 0.378,-122.835c20.787,-54.992 102.992,-76.913 106.583,-139.276c3.78,-63.685 -70.11,-95.244 -102.614,-140.22c-84.661,-117.354 -98.457,-222.803 -246.803,-282.142Z" style="fill:#f8fafc;"/><path id="eye-swirl-right" d="M2844.338,2286.657c21.543,144.567 308.409,29.291 405.543,137.764c85.606,95.622 -325.795,256.63 -388.724,266.835c-5.48,11.717 1.89,37.228 3.213,50.268c116.598,-22.488 610.961,-172.346 533.291,-354.52c-70.299,-165.354 -415.748,-101.48 -553.323,-100.346Z" style="fill:#f8fafc;"/><path id="eye-swirl-left" d="M2539.33,2771.571c-41.575,-177.638 -389.48,-71.055 -413.669,-163.465c0.756,-102.047 354.898,-178.205 428.598,-207.118c-2.457,-13.606 -2.268,-29.669 -13.417,-39.118c-89.386,-42.142 -606.047,161.953 -553.89,284.598c61.039,143.244 428.22,103.748 552.378,125.102Z" style="fill:#f8fafc;"/></g><g id="star"><path id="stroke-upper" d="M674.511,1126.531c86.929,331.087 342.614,668.976 535.937,947.15c94.866,136.63 218.457,378.331 363.969,462.803c44.031,-190.677 -29.858,-203.717 -121.323,-360.756c-93.354,-159.874 -172.724,-329.764 -258.52,-493.984c375.874,134.173 740.409,276.85 1132.913,358.677c225.071,46.866 452.409,83.906 680.693,110.173c94.488,10.772 264.756,-8.882 346.772,36.283c100.724,55.37 161.386,228.472 218.457,322.772c19.276,1.701 69.165,-50.268 85.606,-62.74c4.913,-58.394 -162.142,-233.953 -199.37,-285.543c-193.89,-266.835 -417.638,-515.339 -661.417,-737.386c-80.882,-73.89 -205.228,-220.913 -314.079,-246.992c-154.205,204.472 -328.063,403.654 -449.575,629.669c66.331,11.528 133.039,26.268 199.937,34.772c39.874,-68.031 79.559,-136.063 119.433,-203.906c35.15,2.646 77.102,26.835 110.362,39.118c-2.079,-37.606 -51.969,-183.685 15.307,-192c48.378,-5.858 152.126,81.449 193.323,106.961c213.732,132.094 433.89,295.748 601.134,484.913c-723.402,-13.795 -1412.787,-219.024 -2044.346,-569.008c-198.803,-110.362 -365.669,-259.276 -555.213,-380.976Z" style="fill:#f8fafc;"/><path id="accent-upper-left" d="M1384.495,1876.579c26.268,75.024 126.425,283.087 197.48,319.748c25.134,12.85 61.606,-12.283 85.606,-19.276c2.457,-71.244 -232.063,-249.449 -283.087,-300.472Z" style="fill:#f8fafc;"/><path id="stroke-right" d="M3584.369,2106.563c71.244,135.685 372.85,122.457 509.858,133.984c20.787,1.701 117.354,-5.858 128.693,7.37c-82.394,80.504 -213.732,134.551 -312,195.213c-237.165,146.268 -479.622,284.22 -713.386,436.346c-125.291,81.449 -246.803,169.323 -365.858,259.654c-35.15,26.835 -124.346,131.15 -169.323,123.969c-65.953,-10.772 -122.646,-71.622 -176.693,-106.961c-204.661,-133.228 -380.031,-356.031 -595.087,-463.937c-89.197,135.874 178.016,314.646 263.433,391.559c687.496,619.843 1479.874,1037.669 2389.984,1207.748c-85.039,-351.874 -255.496,-698.079 -385.89,-1035.024c-24.189,-62.551 -190.866,-484.535 -220.724,-499.087c-59.339,21.354 -118.488,42.709 -177.827,64.063c74.457,281.953 270.047,577.89 375.307,860.598c20.22,54.425 104.882,196.724 92.787,251.15c-46.299,45.354 -379.843,-88.441 -442.772,-106.583c90.142,59.717 272.126,103.559 339.591,181.795c-29.102,57.449 -865.512,-282.331 -859.654,-346.772c36.472,11.339 384.567,127.937 389.669,116.598c-54.047,-65.953 -184.063,-111.496 -256.441,-158.929c-67.654,-44.409 -147.402,-142.488 -228.472,-157.228c-51.78,-9.449 -54.803,77.291 -99.969,83.15c-75.024,9.827 -249.449,-163.276 -303.496,-212.22c3.213,-13.417 84.283,-54.047 99.591,-66.331c108.472,-86.929 215.433,-172.913 329.953,-252.283c596.976,-412.913 1293.732,-744 1962.898,-1022.551c-93.165,-56.315 -404.976,33.071 -514.394,44.787c-352.441,37.417 -705.26,67.843 -1059.78,69.921Z" style="fill:#f8fafc;"/><path id="stroke-left" d="M1914.385,2021.523c-325.228,750.236 -495.685,1390.488 -472.63,2216.315c3.591,134.173 -32.882,425.197 140.976,467.906c61.228,14.929 344.882,-439.748 394.772,-503.622c168.378,-214.866 346.205,-420.094 536.882,-615.496c0,-33.638 -106.205,-112.441 -138.52,-94.11c-207.496,117.354 -399.118,368.504 -556.346,544.819c-46.488,52.346 -112.819,178.772 -180.094,202.772c10.016,-172.346 27.213,-346.016 29.858,-518.551c-56.693,0 -98.835,263.244 -129.827,259.465c5.102,-61.039 16.441,-533.669 68.787,-544.441c26.646,25.323 45.732,96 78.992,109.984c24.567,-25.89 11.339,-158.173 13.606,-195.78c9.26,-158.74 13.228,-318.425 34.205,-475.843c38.551,-289.323 142.488,-536.504 249.071,-807.496c-18.331,-18.709 -47.811,-31.748 -69.732,-45.921Z" style="fill:#f8fafc;"/><path id="accent-lower-left" d="M1984.306,3301.649c-0.945,45.165 -27.78,184.441 -2.835,219.969c14.362,-6.803 79.37,-212.787 70.677,-224.882c-22.677,1.512 -45.165,3.213 -67.843,4.913Z" style="fill:#f8fafc;"/><path id="accent-lower-right-a" d="M3764.464,3346.248c0,21.165 105.071,98.835 123.969,120.189c78.614,88.63 144.567,208.063 239.622,279.118c-1.512,-95.244 -187.465,-376.819 -263.244,-431.433c-18.52,-13.417 -100.346,8.126 -100.346,32.126Z" style="fill:#f8fafc;"/><path id="accent-lower-right-b" d="M3404.464,3461.523c191.433,66.331 358.866,181.795 543.118,264.189c11.717,-68.787 -393.638,-350.929 -457.89,-350.362c-38.929,0.189 -71.811,55.559 -85.228,86.173Z" style="fill:#f8fafc;"/></g><defs><linearGradient id="_Linear1" x1="0" y1="0" x2="1" y2="0" gradientUnits="userSpaceOnUse" gradientTransform="matrix(5833.333333,5833.333333,-5833.333333,5833.333333,0,0)"><stop offset="0" style="stop-color:#334155;stop-opacity:1"/><stop offset="1" style="stop-color:#1e293b;stop-opacity:1"/></linearGradient></defs></svg>